<?xml version="1.0" standalone="no"?>
<!DOCTYPE svg PUBLIC "-//W3C//DTD SVG 20010904//EN"
 "http://www.w3.org/TR/2001/REC-SVG-20010904/DTD/svg10.dtd">
<svg version="1.0" xmlns="http://www.w3.org/2000/svg"
 width="741.000000pt" height="740.000000pt" viewBox="0 0 741.000000 740.000000"
 preserveAspectRatio="xMidYMid meet">

<g transform="translate(0.000000,740.000000) scale(0.100000,-0.100000)"
fill="#000000" stroke="none">
<path d="M3740 7236 c0 -18 5 -91 10 -161 6 -70 9 -129 7 -132 -3 -2 -54 66
-113 151 -60 86 -115 156 -121 156 -8 0 -13 -12 -13 -27 1 -67 28 -395 33
-400 18 -18 21 24 11 169 -6 90 -10 164 -9 165 0 1 52 -69 114 -157 62 -88
116 -160 122 -160 12 0 12 30 -3 248 -9 137 -15 182 -25 182 -8 0 -13 -13 -13
-34z"/>
<path d="M4130 7098 c-118 -248 -122 -258 -104 -258 10 0 29 29 52 80 l36 80
71 -7 c38 -3 71 -7 73 -8 2 -2 12 -42 23 -89 17 -71 24 -86 40 -86 10 0 19 2
19 4 0 3 -59 261 -95 414 -3 13 -13 22 -24 22 -13 0 -36 -38 -91 -152z m103
14 c23 -107 26 -101 -40 -95 -32 3 -59 7 -61 8 -5 4 71 165 78 165 4 0 14 -35
23 -78z"/>
<path d="M3058 7167 c-10 -10 -19 -73 -32 -213 -9 -110 -20 -207 -22 -216 -3
-11 0 -18 9 -18 17 0 27 30 27 81 0 77 10 98 49 109 101 29 102 28 149 -49 31
-51 49 -71 64 -71 27 0 26 2 -98 197 -127 201 -126 199 -146 180z m112 -206
c0 -7 -87 -31 -112 -31 -5 0 -7 12 -4 28 2 15 8 58 11 96 l7 68 49 -76 c27
-43 49 -81 49 -85z"/>
<path d="M4981 7029 c-109 -56 -161 -216 -104 -326 27 -51 95 -87 147 -78 54
11 45 30 -13 30 -60 0 -96 28 -112 88 -29 107 69 277 159 277 28 0 59 -15 89
-43 25 -23 43 -15 27 10 -37 59 -123 77 -193 42z"/>
<path d="M2593 7024 c-50 -25 -69 -64 -65 -131 3 -39 54 -76 146 -106 63 -21
91 -35 103 -53 25 -39 8 -75 -43 -93 -36 -13 -44 -12 -74 3 -27 13 -35 14 -42
4 -4 -8 -1 -18 8 -24 55 -42 163 -12 190 51 29 70 -11 122 -125 160 -95 32
-110 41 -122 72 -20 54 23 103 92 103 20 0 29 4 27 13 -7 18 -59 19 -95 1z"/>
<path d="M5476 6810 c-73 -23 -138 -94 -162 -177 -29 -100 5 -182 89 -217 45
-19 49 -19 101 -3 61 19 124 79 152 144 21 50 22 139 1 180 -32 61 -113 94
-181 73z m105 -36 c40 -20 62 -74 54 -128 -15 -90 -99 -196 -166 -210 -74 -14
-136 49 -126 130 11 104 112 222 190 224 10 0 32 -7 48 -16z"/>
<path d="M2082 6753 c-103 -50 -110 -209 -14 -315 123 -136 302 -84 302 87 0
158 -166 289 -288 228z m123 -36 c83 -47 149 -179 125 -252 -15 -45 -54 -75
-97 -75 -93 0 -193 121 -193 235 0 99 77 142 165 92z"/>
<path d="M5885 6329 c-136 -158 -138 -162 -118 -178 12 -9 45 -37 75 -63 51
-45 78 -58 78 -40 0 4 -27 32 -60 62 l-61 55 130 150 c97 112 127 153 119 162
-6 7 -14 13 -18 13 -4 0 -69 -73 -145 -161z"/>
<path d="M1620 6393 c-24 -10 -140 -114 -140 -127 1 -6 66 -78 144 -161 128
-133 146 -148 161 -135 14 12 11 18 -34 64 -28 29 -51 56 -51 62 0 6 10 20 23
32 22 21 24 21 122 7 93 -13 101 -13 118 4 17 17 14 18 -82 30 -94 12 -116 21
-91 36 17 11 11 88 -10 123 -35 56 -106 85 -160 65z m79 -47 c37 -20 63 -61
64 -102 1 -28 -8 -43 -43 -79 l-44 -45 -73 72 c-40 40 -73 77 -73 82 0 6 19
27 43 48 46 41 80 47 126 24z"/>
<path d="M6233 6005 c-143 -113 -174 -143 -150 -146 5 0 58 38 119 86 60 48
111 85 113 83 2 -1 -33 -65 -76 -141 -44 -76 -77 -142 -74 -147 3 -5 58 9 123
31 141 47 212 69 212 64 0 -1 -56 -47 -124 -101 -108 -85 -123 -100 -115 -117
7 -12 14 -15 22 -9 7 5 83 64 170 132 214 168 207 180 -49 96 -93 -30 -170
-54 -172 -52 -2 2 38 75 87 163 88 153 101 183 82 183 -5 0 -80 -56 -168 -125z"/>
<path d="M1005 5620 c-4 -6 2 -21 12 -34 196 -250 303 -445 483 -881 197 -480
295 -692 397 -862 253 -425 628 -735 1071 -886 57 -20 106 -37 108 -40 2 -2
-19 -53 -47 -113 -234 -497 -370 -996 -420 -1539 -13 -151 -17 -495 -6 -675
l8 -125 -22 25 c-39 45 -160 260 -209 368 -55 124 -103 267 -133 402 -18 82
-21 127 -21 325 0 203 2 242 22 334 42 191 96 334 228 599 128 256 149 317
121 340 -19 16 -31 -1 -115 -154 -152 -281 -252 -545 -303 -805 -19 -93 -23
-149 -23 -304 -1 -104 3 -219 7 -254 l8 -63 -68 47 c-126 89 -257 200 -383
325 -710 708 -1008 1709 -804 2699 38 184 92 355 180 567 4 10 -35 34 -56 34
-12 0 -102 -234 -138 -361 -92 -322 -116 -502 -116 -859 0 -229 4 -297 21
-410 75 -476 229 -881 478 -1255 208 -312 467 -578 787 -806 l121 -86 43 -134
c87 -265 234 -524 461 -817 35 -45 65 -82 67 -82 1 0 -3 33 -10 73 -17 96 -17
136 2 264 13 88 77 370 87 379 1 1 54 -13 117 -32 131 -40 358 -87 510 -106
64 -8 207 -13 365 -12 215 0 285 4 405 23 661 100 1224 376 1689 826 393 381
667 839 817 1370 32 111 75 316 69 325 -3 4 -18 10 -35 12 -25 4 -31 1 -35
-16 -70 -357 -159 -624 -294 -881 -299 -570 -741 -1002 -1316 -1285 -215 -106
-372 -164 -595 -219 -202 -50 -322 -68 -552 -83 -332 -22 -727 25 -1028 121
-71 23 -85 31 -82 47 6 42 133 284 193 369 91 128 295 329 499 491 324 257
424 352 560 529 29 39 69 88 88 110 47 56 166 299 187 384 9 39 30 90 46 114
28 43 38 48 351 187 402 178 594 256 818 330 489 163 888 210 1314 154 129
-17 129 -17 122 -5 -3 5 -23 12 -43 15 -144 26 -412 121 -543 193 -186 103
-334 241 -430 402 -153 257 -247 372 -374 455 -220 145 -527 168 -811 61 -246
-93 -597 -318 -815 -522 l-85 -80 -105 69 c-126 83 -353 196 -545 272 -77 30
-333 120 -570 199 -563 190 -703 246 -903 363 -207 121 -289 182 -497 369
-138 123 -184 162 -239 199 -40 27 -80 34 -91 16z m431 -407 c132 -108 321
-220 533 -317 180 -82 355 -150 756 -291 444 -156 650 -237 826 -324 127 -63
273 -148 328 -190 l24 -19 -50 -53 c-223 -240 -497 -616 -667 -917 -38 -67
-75 -122 -82 -122 -31 0 -216 66 -311 110 -386 181 -683 500 -949 1015 -92
178 -148 302 -299 670 -115 279 -194 457 -233 525 l-25 45 44 -41 c24 -23 72
-64 105 -91z m3899 -498 c170 -36 301 -103 406 -207 39 -38 117 -142 197 -260
225 -332 342 -435 590 -518 l87 -29 -110 0 c-276 -2 -631 -76 -980 -205 -195
-72 -301 -115 -680 -281 -198 -87 -365 -159 -371 -162 -8 -3 -13 40 -17 139
-12 320 -123 575 -348 800 l-97 98 63 58 c146 137 378 298 585 406 298 155
489 200 675 161z m-1278 -772 c228 -225 333 -476 333 -798 l0 -122 -127 -26
c-360 -75 -693 -95 -958 -57 -130 18 -123 9 -74 98 103 188 297 478 448 667
92 115 274 324 283 324 4 1 47 -38 95 -86z m288 -1086 c-44 -115 -160 -334
-228 -429 -146 -204 -263 -318 -602 -591 -435 -350 -619 -580 -738 -923 -33
-94 -81 -288 -89 -359 -2 -16 -8 10 -12 59 -12 127 0 637 18 786 60 481 180
898 389 1348 l71 154 30 -6 c359 -73 732 -64 1094 27 48 12 89 19 90 14 2 -4
-9 -40 -23 -80z"/>
<path d="M6592 5451 c-111 -15 -191 -30 -190 -36 3 -12 50 -13 126 -3 l53 7
31 -63 31 -64 -61 -68 c-50 -56 -59 -71 -49 -82 10 -12 38 12 169 147 101 104
155 167 151 177 -7 18 -26 17 -261 -15z m143 -71 l-70 -70 -22 44 c-36 70 -36
69 52 82 44 6 87 12 95 13 8 0 -17 -31 -55 -69z"/>
<path d="M7000 5039 c-14 -4 -105 -31 -202 -60 -123 -36 -178 -56 -178 -66 0
-9 6 -12 18 -9 114 36 295 86 298 83 2 -2 -55 -68 -127 -146 -72 -79 -127
-147 -122 -152 4 -4 73 12 153 35 80 24 171 51 203 60 54 16 77 36 40 36 -10
0 -85 -20 -167 -45 l-149 -44 25 27 c13 15 72 80 132 144 106 116 127 153 76
137z"/>
</g>
</svg>
